<svg width="76" height="51" viewBox="0 0 76 51" fill="none" xmlns="http://www.w3.org/2000/svg">
<path fill-rule="evenodd" clip-rule="evenodd" d="M0.744252 5.364C0.716006 5.60192 0.701477 5.84404 0.701477 6.08955V44.9104C0.701477 48.2736 3.42786 51 6.79103 51H69.2089C72.5721 51 75.2985 48.2736 75.2985 44.9104V6.08955C75.2985 5.84404 75.284 5.60192 75.2557 5.364C74.897 2.34286 72.3266 0 69.2089 0H6.79103C3.67338 0 1.10293 2.34286 0.744252 5.364ZM7.26864 9.13433C6.16407 9.13433 5.26864 10.0298 5.26864 11.1343V44.9104C5.26864 45.7512 5.95024 46.4328 6.79103 46.4328H69.2089C70.0497 46.4328 70.7313 45.7512 70.7313 44.9104V11.1343C70.7313 10.0298 69.8359 9.13433 68.7313 9.13433H7.26864Z" fill="white"/>
<rect x="8.00006" y="12" width="28" height="32" rx="2" fill="white"/>
<rect x="40.0001" y="12" width="28" height="9" rx="2" fill="white"/>
<rect x="40" y="23.5" width="28" height="9" rx="2" fill="white"/>
<rect x="40" y="35" width="28" height="9" rx="2" fill="white"/>
</svg>
