<svg width="100" height="22" viewBox="0 0 100 22" fill="none" xmlns="http://www.w3.org/2000/svg">
<path fill-rule="evenodd" clip-rule="evenodd" d="M7.47185 17.8393H8.81859L12.0721 9.04839C12.4171 8.11641 12.1454 7.0345 11.4073 6.40032L4.71043 0.646973H4.22117L10.1894 6.44919C10.8558 7.09703 11.082 8.12394 10.7533 9.0087L7.47185 17.8393ZM9.68693 17.8393H11.0208L14.2869 8.97709C14.6587 7.96812 14.3064 6.79787 13.4509 6.20004L5.50364 0.646973H5.05218L12.2682 6.194C13.0732 6.81281 13.3867 7.94855 13.0218 8.92406L9.68693 17.8393ZM11.759 17.8393H12.6837L16.0857 8.56223C16.475 7.50072 16.0622 6.2724 15.1273 5.71014L6.70845 0.646973H6.03836L14.2112 6.19807C15.086 6.79222 15.4485 7.98092 15.0664 9.00202L11.759 17.8393ZM8.51934 9.14251L5.27538 17.8393H6.61782L9.89498 9.02766C10.2105 8.17939 10.0166 7.19598 9.4051 6.5427L3.88652 0.646973H3.33465L8.1601 6.80705C8.67169 7.46015 8.81043 8.36211 8.51934 9.14251ZM1.67937 17.8393H4.3914L7.59934 8.92523C7.8663 8.1834 7.74862 7.33426 7.29017 6.69429L4.82356 3.25108L3.64503 6.51243C3.60923 6.61142 3.49733 6.66012 3.41528 6.59619C2.8717 6.17266 2.97874 5.15045 3.02578 5.04198L3.05065 4.98584C2.86382 5.12891 2.63785 5.24291 2.38729 5.25372C2.23071 5.26047 2.14574 5.09038 2.2 4.93987L3.48325 1.38012L2.95805 0.646973H1.67937C0.751881 0.646973 0 1.4167 0 2.36621V16.1201C0 17.0696 0.751881 17.8393 1.67937 17.8393Z" fill="white"/>
<path d="M21.3655 17.8401H24.4766V12.173H26.9939C27.8964 12.173 28.7118 12.0439 29.44 11.7855C30.1683 11.5272 30.7858 11.1639 31.2924 10.6957C31.8149 10.2113 32.2186 9.63008 32.5036 8.95196C32.7886 8.2577 32.9311 7.49078 32.9311 6.65121V6.33637C32.9311 5.49679 32.7886 4.73795 32.5036 4.05983C32.2186 3.38171 31.8149 2.80854 31.2924 2.34032C30.77 1.87209 30.1446 1.51689 29.4163 1.2747C28.688 1.01637 27.8726 0.887207 26.9702 0.887207H21.3655V17.8401ZM24.4054 9.55743V3.67233H26.7565C27.2314 3.67233 27.6589 3.73692 28.0389 3.86608C28.4189 3.9791 28.7355 4.14863 28.9888 4.37467C29.258 4.60071 29.4638 4.89133 29.6063 5.24653C29.7488 5.58559 29.82 5.96502 29.82 6.3848V6.69965C29.82 7.15172 29.7409 7.55536 29.5825 7.91057C29.44 8.24963 29.2342 8.54832 28.9651 8.80665C28.6959 9.04884 28.3714 9.23451 27.9914 9.36368C27.6114 9.49284 27.176 9.55743 26.6852 9.55743H24.4054Z" fill="white"/>
<path d="M38.3437 18.0823C39.1037 18.0823 39.824 17.937 40.5048 17.6464C41.1856 17.3396 41.7872 16.9198 42.3097 16.387C42.3414 16.6454 42.381 16.9118 42.4285 17.1863C42.4918 17.4446 42.5551 17.6625 42.6184 17.8401H45.4208C45.3099 17.4365 45.207 17.0167 45.112 16.5808C45.0329 16.1287 44.9933 15.6847 44.9933 15.2488V9.55743C44.9933 8.84702 44.8825 8.20926 44.6608 7.64417C44.455 7.07907 44.1383 6.60277 43.7109 6.21527C43.2992 5.81163 42.7926 5.50487 42.191 5.29497C41.5893 5.08508 40.9165 4.98013 40.1723 4.98013H39.9586C39.0403 4.98013 38.1458 5.12544 37.275 5.41606C36.4042 5.70669 35.5889 6.10225 34.8289 6.60277L36.0401 8.734C36.6259 8.31421 37.2354 7.99937 37.8687 7.78948C38.5179 7.57958 39.1512 7.47464 39.7686 7.47464H39.8874C40.6473 7.47464 41.2173 7.66031 41.5973 8.03166C41.9931 8.38687 42.191 8.87931 42.191 9.50899V10.066H41.2173C38.8424 10.066 37.085 10.4051 35.9451 11.0832C34.8052 11.7452 34.2352 12.7623 34.2352 14.1347V14.3527C34.2352 14.9178 34.3381 15.4344 34.5439 15.9027C34.7498 16.3547 35.0268 16.7422 35.3751 17.0652C35.7393 17.3881 36.1747 17.6383 36.6813 17.8159C37.1879 17.9935 37.7421 18.0823 38.3437 18.0823ZM38.9612 15.6605C38.692 15.6605 38.4387 15.6201 38.2012 15.5394C37.9637 15.4587 37.7579 15.3537 37.5837 15.2246C37.4254 15.0954 37.2988 14.9339 37.2038 14.7402C37.1246 14.5464 37.085 14.3285 37.085 14.0863V13.9652C37.085 13.2871 37.4333 12.7946 38.13 12.4879C38.8424 12.1649 39.9586 12.0035 41.4785 12.0035H42.191V14.1105C41.7952 14.5949 41.3123 14.9743 40.7423 15.2488C40.1882 15.5232 39.5945 15.6605 38.9612 15.6605Z" fill="white"/>
<path d="M52.75 18.0823C53.4624 18.0823 54.1116 17.9935 54.6974 17.8159C55.2831 17.6383 55.774 17.38 56.1698 17.0409C56.5814 16.7019 56.8981 16.2902 57.1197 15.8058C57.3414 15.3214 57.4522 14.7805 57.4522 14.1832C57.4522 13.5212 57.3255 12.9722 57.0722 12.5363C56.8189 12.1004 56.4864 11.7452 56.0748 11.4707C55.679 11.1801 55.2277 10.954 54.7211 10.7926C54.2145 10.615 53.7157 10.4697 53.2249 10.3566C52.845 10.2598 52.4808 10.171 52.1325 10.0902C51.7842 9.99336 51.4755 9.88841 51.2063 9.77539C50.953 9.66237 50.7472 9.51706 50.5889 9.33946C50.4305 9.16186 50.3514 8.94389 50.3514 8.68556C50.3514 8.47567 50.391 8.29806 50.4701 8.15275C50.5493 8.00744 50.6522 7.88635 50.7788 7.78948C50.9213 7.67646 51.0955 7.59573 51.3013 7.54729C51.523 7.48271 51.7684 7.45042 52.0375 7.45042C52.6391 7.45042 53.2408 7.56344 53.8424 7.78948C54.4599 8.01552 55.014 8.31421 55.5048 8.68556L56.906 6.55433C56.2568 6.08611 55.5206 5.71476 54.6974 5.44028C53.8741 5.14966 53.0191 5.00435 52.1325 5.00435C51.4359 5.00435 50.8105 5.09315 50.2564 5.27075C49.7181 5.43221 49.251 5.68247 48.8552 6.02153C48.4752 6.34444 48.1823 6.74001 47.9765 7.20823C47.7707 7.67646 47.6678 8.20119 47.6678 8.78243C47.6678 9.34753 47.7628 9.8319 47.9528 10.2355C48.1428 10.623 48.3961 10.946 48.7127 11.2043C49.0452 11.4626 49.4173 11.6725 49.8289 11.834C50.2405 11.9954 50.6601 12.1407 51.0876 12.2699C51.6417 12.4475 52.1325 12.5928 52.56 12.7058C53.0033 12.8188 53.3754 12.9399 53.6762 13.0691C53.9928 13.1983 54.2303 13.3517 54.3886 13.5293C54.5469 13.6907 54.6261 13.9248 54.6261 14.2316C54.6261 14.4738 54.5865 14.6756 54.5074 14.8371C54.4282 14.9985 54.3015 15.1438 54.1274 15.273C53.9691 15.386 53.7632 15.4748 53.5099 15.5394C53.2724 15.5878 52.9954 15.612 52.6787 15.612C52.3304 15.612 51.9742 15.5798 51.61 15.5152C51.2459 15.4344 50.8897 15.3295 50.5414 15.2003C50.193 15.0712 49.8527 14.9178 49.5202 14.7402C49.2035 14.5626 48.9185 14.3527 48.6652 14.1105L47.1928 16.2659C47.9211 16.8633 48.7523 17.3154 49.6864 17.6222C50.6364 17.929 51.6575 18.0823 52.75 18.0823Z" fill="white"/>
<path d="M63.6617 17.9612C64.0892 17.9612 64.58 17.9209 65.1341 17.8401C65.7041 17.7594 66.1711 17.6383 66.5353 17.4769V15.1035C66.4244 15.1519 66.274 15.1923 66.084 15.2246C65.9099 15.2568 65.7278 15.2891 65.5378 15.3214C65.3637 15.3376 65.1816 15.3537 64.9916 15.3699C64.8016 15.3699 64.6433 15.3699 64.5166 15.3699C64.0258 15.3699 63.6538 15.2407 63.4004 14.9824C63.1471 14.724 63.0205 14.2477 63.0205 13.5535V7.66838H66.4165V5.24653H63.0442V1.97704L60.0994 2.34032V5.27075C59.8303 5.2869 59.5453 5.33534 59.2445 5.41606C58.9595 5.48065 58.7062 5.5533 58.4845 5.63403V7.66838H60.0994V14.1347C60.0994 14.7967 60.1786 15.3699 60.3369 15.8542C60.511 16.3225 60.7485 16.718 61.0493 17.0409C61.3502 17.3477 61.7143 17.5818 62.1418 17.7433C62.5851 17.8886 63.0917 17.9612 63.6617 17.9612Z" fill="white"/>
<path d="M80.4225 19.2449C80.3117 19.2772 80.1771 19.3014 80.0188 19.3176C79.8605 19.3499 79.6943 19.3741 79.5201 19.3902C79.3618 19.4225 79.1955 19.4387 79.0214 19.4387C78.8631 19.4548 78.7206 19.4629 78.5939 19.4629C78.1823 19.4629 77.8656 19.3741 77.644 19.1965C77.4381 19.0189 77.3194 18.7202 77.2877 18.3004L77.264 18.0582C78.2931 17.9613 79.2272 17.6869 80.0663 17.2348C80.9213 16.7827 81.6495 16.1934 82.2512 15.4668C82.8528 14.7241 83.3199 13.8603 83.6523 12.8755C83.9848 11.8906 84.1511 10.8007 84.1511 9.60596V9.12159C84.1511 7.82993 83.9532 6.66745 83.5573 5.63412C83.1774 4.58466 82.6391 3.68857 81.9424 2.94587C81.2458 2.18703 80.4146 1.60578 79.4488 1.20214C78.4831 0.7985 77.4223 0.59668 76.2665 0.59668H75.9816C74.8258 0.59668 73.765 0.7985 72.7993 1.20214C71.8335 1.60578 71.0023 2.18703 70.3057 2.94587C69.609 3.68857 69.0628 4.58466 68.667 5.63412C68.287 6.66745 68.097 7.82993 68.097 9.12159V9.60596C68.097 10.7362 68.2475 11.7856 68.5483 12.7544C68.8649 13.707 69.3003 14.5465 69.8544 15.2731C70.4244 15.9996 71.1052 16.597 71.8968 17.0653C72.6884 17.5335 73.5592 17.8402 74.5092 17.9856V18.3488C74.5092 19.5436 74.8021 20.4316 75.3878 21.0129C75.9736 21.6103 76.8603 21.9089 78.0477 21.9089C78.4277 21.9089 78.8314 21.8767 79.2589 21.8121C79.6863 21.7636 80.0742 21.691 80.4225 21.5941V19.2449ZM71.3268 9.60596V9.12159C71.3268 8.24972 71.4456 7.46666 71.6831 6.77239C71.9206 6.06198 72.2451 5.46459 72.6568 4.98023C73.0684 4.47971 73.5592 4.10029 74.1292 3.84196C74.6991 3.56748 75.3245 3.43024 76.0053 3.43024H76.2428C76.9236 3.43024 77.549 3.56748 78.1189 3.84196C78.6889 4.10029 79.1797 4.47971 79.5913 4.98023C80.003 5.46459 80.3275 6.06198 80.565 6.77239C80.8025 7.46666 80.9213 8.24972 80.9213 9.12159V9.60596C80.9213 10.4778 80.8025 11.269 80.565 11.9794C80.3275 12.6736 80.003 13.271 79.5913 13.7715C79.1797 14.2559 78.6889 14.6353 78.1189 14.9098C77.549 15.1681 76.9236 15.2973 76.2428 15.2973H76.0053C75.3245 15.2973 74.6991 15.1681 74.1292 14.9098C73.5592 14.6353 73.0684 14.2559 72.6568 13.7715C72.2451 13.271 71.9206 12.6736 71.6831 11.9794C71.4456 11.269 71.3268 10.4778 71.3268 9.60596Z" fill="white"/>
<path d="M87.045 17.8402H90.1561V11.6645H92.8634L96.2832 17.8402H99.9643L95.9032 11.0348C96.8215 10.6635 97.534 10.0742 98.0406 9.2669C98.5631 8.44347 98.8243 7.46666 98.8243 6.33646V6.09428C98.8243 5.28699 98.6897 4.56851 98.4206 3.93883C98.1673 3.293 97.7873 2.74405 97.2807 2.29197C96.7899 1.8399 96.1803 1.49276 95.452 1.25058C94.7396 1.00839 93.9321 0.887301 93.0297 0.887301H87.045V17.8402ZM90.0849 9.17002V3.59977H92.6022C93.5996 3.59977 94.3675 3.83388 94.9058 4.30211C95.4441 4.75419 95.7133 5.39194 95.7133 6.21537V6.45755C95.7133 7.29713 95.4441 7.9591 94.9058 8.44347C94.3675 8.92784 93.5917 9.17002 92.5785 9.17002H90.0849Z" fill="white"/>
</svg>
