<svg width="32" height="33" viewBox="0 0 32 33" fill="none" xmlns="http://www.w3.org/2000/svg">
<g id="bi:question-circle-fill">
<path id="Vector" d="M26.6667 16.5C26.6667 19.329 25.5429 22.0421 23.5425 24.0425C21.5421 26.0429 18.829 27.1667 16 27.1667C13.171 27.1667 10.4579 26.0429 8.45754 24.0425C6.45715 22.0421 5.33334 19.329 5.33334 16.5C5.33334 13.671 6.45715 10.9579 8.45754 8.95753C10.4579 6.95714 13.171 5.83333 16 5.83333C18.829 5.83333 21.5421 6.95714 23.5425 8.95753C25.5429 10.9579 26.6667 13.671 26.6667 16.5ZM12.6613 13.8773H13.7613C13.9453 13.8773 14.092 13.7267 14.116 13.544C14.236 12.6693 14.836 12.032 15.9053 12.032C16.82 12.032 17.6573 12.4893 17.6573 13.5893C17.6573 14.436 17.1587 14.8253 16.3707 15.4173C15.4733 16.0693 14.7627 16.8307 14.8133 18.0667L14.8173 18.356C14.8187 18.4435 14.8545 18.5269 14.9168 18.5883C14.9792 18.6496 15.0632 18.684 15.1507 18.684H16.232C16.3204 18.684 16.4052 18.6489 16.4677 18.5864C16.5302 18.5239 16.5653 18.4391 16.5653 18.3507V18.2107C16.5653 17.2533 16.9293 16.9747 17.912 16.2293C18.724 15.612 19.5707 14.9267 19.5707 13.488C19.5707 11.4733 17.8693 10.5 16.0067 10.5C14.3173 10.5 12.4667 11.2867 12.34 13.548C12.3382 13.5911 12.3452 13.634 12.3606 13.6743C12.376 13.7145 12.3995 13.7512 12.4296 13.7821C12.4596 13.8129 12.4957 13.8373 12.5356 13.8537C12.5755 13.87 12.6183 13.8781 12.6613 13.8773ZM15.7613 22.468C16.5747 22.468 17.1333 21.9427 17.1333 21.232C17.1333 20.496 16.5733 19.9787 15.7613 19.9787C14.9827 19.9787 14.416 20.496 14.416 21.232C14.416 21.9427 14.9813 22.468 15.7613 22.468Z" fill="#BDB8FF"/>
</g>
</svg>
