<svg width="1053" height="390" viewBox="0 0 1053 390" fill="none" xmlns="http://www.w3.org/2000/svg">
<path fill-rule="evenodd" clip-rule="evenodd" d="M846.193 852.51L899.512 789.466L610.89 284.117C580.291 230.541 518.162 199.808 458.823 208.896L-79.5083 291.336L-98.8789 314.24L412.928 267.867C470.074 262.689 527.793 293.34 556.789 344.262L846.193 852.51ZM933.891 748.817L986.702 686.373L695.189 177.575C662 119.648 592.482 89.1438 530.221 105.187L-48.1045 254.204L-65.9781 275.338L483.112 160.307C544.366 147.475 610.709 178.41 642.584 234.668L933.891 748.817ZM1015.93 651.816L1052.54 608.53L746.706 76.7089C711.711 15.856 637.044 -14.1512 573.331 7.03361L-0.404421 197.804L-26.9343 229.173L560.231 69.5131C623.078 52.4242 693.876 83.191 727.233 142.087L1015.93 651.816ZM474.699 454.212L759.232 955.332L812.381 892.489L523.708 385.203C495.919 336.368 441.546 305.95 386.316 308.339L-112.128 329.906L-133.977 355.74L349.578 377.237C400.844 379.516 449.167 409.244 474.699 454.212ZM616.862 1123.67L724.235 996.713L427.957 488.553C403.301 446.264 358.321 417.672 309.782 413.432L48.6257 390.621L156.831 576.766C160.114 582.417 157.996 589.611 151.712 590.885C110.079 599.322 65.7782 553.26 62.4899 546.702L60.8085 543.283C60.2054 557.775 56.6725 572.931 47.2656 585.094C41.3873 592.695 29.9463 589.842 24.9475 581.258L-93.2807 378.226L-148.887 373.37L-199.512 433.227C-236.232 476.645 -229.45 542.755 -184.363 580.887L468.737 1133.24C513.824 1171.37 580.142 1167.09 616.862 1123.67Z" fill="#2C2947"/>
</svg>
