<svg xmlns="http://www.w3.org/2000/svg" width="1288" height="626" viewBox="0 0 1288 626" fill="none">
  <path fill-rule="evenodd" clip-rule="evenodd" d="M1309.33 706.696L1309.86 598.748L592.981 334.402C516.98 306.377 428.486 327.713 376.384 386.624L-96.2929 921.077L-96.4872 960.294L379.892 484.258C433.083 431.106 517.066 413.389 589.214 440.1L1309.33 706.696ZM1310.21 529.147L1310.74 422.227L588.036 156.85C505.756 126.637 410.013 154.403 360.834 222.739L-95.9779 857.498L-96.1572 893.684L359.871 317.532C410.744 253.259 503.653 228.59 583.201 258.233L1310.21 529.147ZM1311.03 363.058L1311.4 288.94L554.859 12.5012C468.293 -19.1301 367.782 13.4567 321.477 88.1658L-95.4994 760.926L-95.7655 814.638L360.975 161.792C409.861 91.9158 507.115 63.3383 590.382 94.3822L1311.03 363.058ZM599.259 619.214L1308.45 882.753L1308.99 775.15L590.423 508.904C521.25 483.274 440.833 498.415 387.22 547.164L-96.6201 987.117L-96.8393 1031.35L408.323 647.064C461.88 606.322 535.621 595.566 599.259 619.214ZM1307.03 1170.99L1308.1 953.608L581.143 692.869C520.646 671.17 451.229 680.259 398.765 716.747L116.494 913.063L382.46 1008.85C390.533 1011.76 394.467 1020.75 389.211 1027.3C354.395 1070.7 270.929 1061.7 262.087 1057.89L257.51 1055.87C269.124 1070.91 278.347 1089.06 279.131 1109.15C279.62 1121.71 265.691 1128.45 253.417 1124.04L-36.8862 1019.74L-96.9889 1061.54L-97.4967 1164.03C-97.865 1238.37 -35.281 1298.95 42.2886 1299.34L1165.91 1304.9C1243.48 1305.29 1306.66 1245.33 1307.03 1170.99Z" fill="url(#paint0_linear_382_1852)"/>
  <defs>
    <linearGradient id="paint0_linear_382_1852" x1="381" y1="-20.4999" x2="381" y2="640" gradientUnits="userSpaceOnUse">
      <stop stop-color="#BDB8FF"/>
      <stop offset="1" stop-color="#BDB8FF" stop-opacity="0"/>
    </linearGradient>
  </defs>
</svg>